<?xml version="1.0" encoding="UTF-8" standalone="no"?>
<!DOCTYPE svg PUBLIC "-//W3C//DTD SVG 1.1//EN"
 "http://www.w3.org/Graphics/SVG/1.1/DTD/svg11.dtd">
<!-- Generated by graphviz version 2.38.0 (20140413.2041)
 -->
<!-- Title: %3 Pages: 1 -->
<svg width="445pt" height="404pt"
 viewBox="0.00 0.00 445.00 404.00" xmlns="http://www.w3.org/2000/svg" xmlns:xlink="http://www.w3.org/1999/xlink">
<g id="graph0" class="graph" transform="scale(1 1) rotate(0) translate(4 400)">
<title>%3</title>
<polygon fill="white" stroke="none" points="-4,4 -4,-400 441,-400 441,4 -4,4"/>
<!-- CSE475 -->
<g id="node1" class="node"><title>CSE475</title>
<ellipse fill="none" stroke="black" cx="216.5" cy="-378" rx="46.2923" ry="18"/>
<text text-anchor="middle" x="216.5" y="-374.3" font-family="Helvetica,sans-Serif" font-size="14.00">CSE475</text>
</g>
<!-- EE271 -->
<g id="node2" class="node"><title>EE271</title>
<g id="a_node2"><a xlink:href="http://127.0.0.1:5000/EE271" xlink:title="EE271" target="_blank">
<polygon fill="#fcfcfc" stroke="#4d4d4d" points="61,-252 3.55271e-015,-252 3.55271e-015,-216 61,-216 61,-252"/>
<text text-anchor="middle" x="30.5" y="-230.3" font-family="Helvetica,sans-Serif" font-size="14.00">EE271</text>
</a>
</g>
</g>
<!-- CSE475&#45;&gt;EE271 -->
<g id="edge1" class="edge"><title>CSE475&#45;&gt;EE271</title>
<path fill="none" stroke="black" d="M170.044,-378C114.952,-378 30.5,-378 30.5,-378 30.5,-378 30.5,-260.238 30.5,-260.238"/>
<polygon fill="black" stroke="black" points="27.3,-252.238 33.7,-252.238 33.7001,-258.638 27.3001,-258.638 27.3,-252.238"/>
<polyline fill="none" stroke="black" points="30.5001,-258.638 30.5001,-260.238 "/>
</g>
<!-- CSE369 -->
<g id="node5" class="node"><title>CSE369</title>
<g id="a_node5"><a xlink:href="http://127.0.0.1:5000/CSE369" xlink:title="CSE369" target="_blank">
<polygon fill="#fcfcfc" stroke="#4d4d4d" points="420,-324 349,-324 349,-288 420,-288 420,-324"/>
<text text-anchor="middle" x="384.5" y="-302.3" font-family="Helvetica,sans-Serif" font-size="14.00">CSE369</text>
</a>
</g>
</g>
<!-- CSE475&#45;&gt;CSE369 -->
<g id="edge5" class="edge"><title>CSE475&#45;&gt;CSE369</title>
<path fill="none" stroke="black" d="M260.201,-384C309.979,-384 384.5,-384 384.5,-384 384.5,-384 384.5,-332.091 384.5,-332.091"/>
<polygon fill="black" stroke="black" points="381.3,-324.091 387.7,-324.091 387.7,-330.491 381.3,-330.491 381.3,-324.091"/>
<polyline fill="none" stroke="black" points="384.5,-330.491 384.5,-332.091 "/>
</g>
<!-- EE472 -->
<g id="node13" class="node"><title>EE472</title>
<g id="a_node13"><a xlink:href="http://127.0.0.1:5000/EE472" xlink:title="EE472" target="_blank">
<polygon fill="#fcfcfc" stroke="#4d4d4d" points="163,-324 102,-324 102,-288 163,-288 163,-324"/>
<text text-anchor="middle" x="132.5" y="-302.3" font-family="Helvetica,sans-Serif" font-size="14.00">EE472</text>
</a>
</g>
</g>
<!-- CSE475&#45;&gt;EE472 -->
<g id="edge14" class="edge"><title>CSE475&#45;&gt;EE472</title>
<path fill="none" stroke="black" d="M175.677,-369.458C175.677,-350.386 175.677,-306 175.677,-306 175.677,-306 169.82,-306 169.82,-306"/>
<ellipse fill="black" stroke="black" cx="166.62" cy="-306" rx="3.2" ry="3.2"/>
</g>
<!-- CSE474 -->
<g id="node16" class="node"><title>CSE474</title>
<g id="a_node16"><a xlink:href="http://127.0.0.1:5000/CSE474" xlink:title="CSE474" target="_blank">
<polygon fill="#fcfcfc" stroke="#4d4d4d" points="252,-324 181,-324 181,-288 252,-288 252,-324"/>
<text text-anchor="middle" x="216.5" y="-302.3" font-family="Helvetica,sans-Serif" font-size="14.00">CSE474</text>
</a>
</g>
</g>
<!-- CSE475&#45;&gt;CSE474 -->
<g id="edge19" class="edge"><title>CSE475&#45;&gt;CSE474</title>
<path fill="none" stroke="black" d="M216.5,-359.831C216.5,-359.831 216.5,-330.813 216.5,-330.813"/>
<ellipse fill="black" stroke="black" cx="216.5" cy="-327.613" rx="3.2" ry="3.2"/>
</g>
<!-- EE474 -->
<g id="node17" class="node"><title>EE474</title>
<g id="a_node17"><a xlink:href="http://127.0.0.1:5000/EE474" xlink:title="EE474" target="_blank">
<polygon fill="#fcfcfc" stroke="#4d4d4d" points="331,-324 270,-324 270,-288 331,-288 331,-324"/>
<text text-anchor="middle" x="300.5" y="-302.3" font-family="Helvetica,sans-Serif" font-size="14.00">EE474</text>
</a>
</g>
</g>
<!-- CSE475&#45;&gt;EE474 -->
<g id="edge21" class="edge"><title>CSE475&#45;&gt;EE474</title>
<path fill="none" stroke="black" d="M260.468,-372C280.792,-372 300.5,-372 300.5,-372 300.5,-372 300.5,-330.435 300.5,-330.435"/>
<ellipse fill="black" stroke="black" cx="300.5" cy="-327.235" rx="3.2" ry="3.2"/>
</g>
<!-- CSE142 -->
<g id="node3" class="node"><title>CSE142</title>
<g id="a_node3"><a xlink:href="http://127.0.0.1:5000/CSE142" xlink:title="CSE142" target="_blank">
<polygon fill="#f5f5f5" stroke="#4d4d4d" points="180,-108 109,-108 109,-72 180,-72 180,-108"/>
<text text-anchor="middle" x="144.5" y="-86.3" font-family="Helvetica,sans-Serif" font-size="14.00">CSE142</text>
</a>
</g>
</g>
<!-- EE271&#45;&gt;CSE142 -->
<g id="edge2" class="edge"><title>EE271&#45;&gt;CSE142</title>
<path fill="none" stroke="black" d="M20.3333,-215.762C20.3333,-177.014 20.3333,-90 20.3333,-90 20.3333,-90 100.919,-90 100.919,-90"/>
<polygon fill="black" stroke="black" points="108.919,-86.8 108.919,-93.2 102.519,-93.2001 102.519,-86.8001 108.919,-86.8"/>
<polyline fill="none" stroke="black" points="102.519,-90.0001 100.919,-90.0001 "/>
</g>
<!-- CSE143 -->
<g id="node4" class="node"><title>CSE143</title>
<g id="a_node4"><a xlink:href="http://127.0.0.1:5000/CSE143" xlink:title="CSE143" target="_blank">
<polygon fill="#f5f5f5" stroke="#4d4d4d" points="239,-180 168,-180 168,-144 239,-144 239,-180"/>
<text text-anchor="middle" x="203.5" y="-158.3" font-family="Helvetica,sans-Serif" font-size="14.00">CSE143</text>
</a>
</g>
</g>
<!-- EE271&#45;&gt;CSE143 -->
<g id="edge3" class="edge"><title>EE271&#45;&gt;CSE143</title>
<path fill="none" stroke="black" d="M40.6667,-215.909C40.6667,-192.867 40.6667,-156 40.6667,-156 40.6667,-156 159.766,-156 159.766,-156"/>
<polygon fill="black" stroke="black" points="167.765,-152.8 167.766,-159.2 161.366,-159.2 161.365,-152.8 167.765,-152.8"/>
<polyline fill="none" stroke="black" points="161.366,-156 159.766,-156 "/>
</g>
<!-- CSE143&#45;&gt;CSE142 -->
<g id="edge4" class="edge"><title>CSE143&#45;&gt;CSE142</title>
<path fill="none" stroke="black" d="M174,-143.831C174,-143.831 174,-116.413 174,-116.413"/>
<polygon fill="black" stroke="black" points="170.8,-108.413 177.2,-108.413 177.2,-114.813 170.8,-114.813 170.8,-108.413"/>
<polyline fill="none" stroke="black" points="174,-114.813 174,-116.413 "/>
</g>
<!-- CSE311 -->
<g id="node6" class="node"><title>CSE311</title>
<g id="a_node6"><a xlink:href="http://127.0.0.1:5000/CSE311" xlink:title="CSE311" target="_blank">
<polygon fill="#f5f5f5" stroke="#4d4d4d" points="410,-252 339,-252 339,-216 410,-216 410,-252"/>
<text text-anchor="middle" x="374.5" y="-230.3" font-family="Helvetica,sans-Serif" font-size="14.00">CSE311</text>
</a>
</g>
</g>
<!-- CSE369&#45;&gt;CSE311 -->
<g id="edge6" class="edge"><title>CSE369&#45;&gt;CSE311</title>
<path fill="none" stroke="black" d="M379.5,-287.831C379.5,-287.831 379.5,-260.413 379.5,-260.413"/>
<polygon fill="black" stroke="black" points="376.3,-252.413 382.7,-252.413 382.7,-258.813 376.3,-258.813 376.3,-252.413"/>
<polyline fill="none" stroke="black" points="379.5,-258.813 379.5,-260.413 "/>
</g>
<!-- CSE311&#45;&gt;CSE143 -->
<g id="edge7" class="edge"><title>CSE311&#45;&gt;CSE143</title>
<path fill="none" stroke="black" d="M338.832,-240C301.318,-240 247.667,-240 247.667,-240 247.667,-240 247.667,-156 247.667,-156 247.667,-156 246.815,-156 246.815,-156"/>
<polygon fill="black" stroke="black" points="239.151,-159.2 239.151,-152.8 245.551,-152.8 245.551,-159.2 239.151,-159.2"/>
<polyline fill="none" stroke="black" points="245.551,-156 247.151,-156 "/>
</g>
<!-- MATH126 -->
<g id="node7" class="node"><title>MATH126</title>
<g id="a_node7"><a xlink:href="http://127.0.0.1:5000/MATH126" xlink:title="MATH126" target="_blank">
<polygon fill="#ededed" stroke="#4d4d4d" points="338,-180 257,-180 257,-144 338,-144 338,-180"/>
<text text-anchor="middle" x="297.5" y="-158.3" font-family="Helvetica,sans-Serif" font-size="14.00">MATH126</text>
</a>
</g>
</g>
<!-- CSE311&#45;&gt;MATH126 -->
<g id="edge8" class="edge"><title>CSE311&#45;&gt;MATH126</title>
<path fill="none" stroke="black" d="M338.781,-228C336.15,-228 334.5,-228 334.5,-228 334.5,-228 334.5,-186.435 334.5,-186.435"/>
<ellipse fill="black" stroke="black" cx="334.5" cy="-183.235" rx="3.2" ry="3.2"/>
</g>
<!-- MATH136 -->
<g id="node10" class="node"><title>MATH136</title>
<g id="a_node10"><a xlink:href="http://127.0.0.1:5000/MATH136" xlink:title="MATH136" target="_blank">
<polygon fill="#ededed" stroke="#4d4d4d" points="437,-180 356,-180 356,-144 437,-144 437,-180"/>
<text text-anchor="middle" x="396.5" y="-158.3" font-family="Helvetica,sans-Serif" font-size="14.00">MATH136</text>
</a>
</g>
</g>
<!-- CSE311&#45;&gt;MATH136 -->
<g id="edge11" class="edge"><title>CSE311&#45;&gt;MATH136</title>
<path fill="none" stroke="black" d="M383,-215.831C383,-215.831 383,-186.813 383,-186.813"/>
<ellipse fill="black" stroke="black" cx="383" cy="-183.613" rx="3.2" ry="3.2"/>
</g>
<!-- MATH125 -->
<g id="node8" class="node"><title>MATH125</title>
<g id="a_node8"><a xlink:href="http://127.0.0.1:5000/MATH125" xlink:title="MATH125" target="_blank">
<polygon fill="#e5e5e5" stroke="#4d4d4d" points="338,-108 257,-108 257,-72 338,-72 338,-108"/>
<text text-anchor="middle" x="297.5" y="-86.3" font-family="Helvetica,sans-Serif" font-size="14.00">MATH125</text>
</a>
</g>
</g>
<!-- MATH126&#45;&gt;MATH125 -->
<g id="edge9" class="edge"><title>MATH126&#45;&gt;MATH125</title>
<path fill="none" stroke="black" d="M297.5,-143.831C297.5,-143.831 297.5,-116.413 297.5,-116.413"/>
<polygon fill="black" stroke="black" points="294.3,-108.413 300.7,-108.413 300.7,-114.813 294.3,-114.813 294.3,-108.413"/>
<polyline fill="none" stroke="black" points="297.5,-114.813 297.5,-116.413 "/>
</g>
<!-- MATH124 -->
<g id="node9" class="node"><title>MATH124</title>
<g id="a_node9"><a xlink:href="http://127.0.0.1:5000/MATH124" xlink:title="MATH124" target="_blank">
<polygon fill="#dedede" stroke="#4d4d4d" points="338,-36 257,-36 257,-0 338,-0 338,-36"/>
<text text-anchor="middle" x="297.5" y="-14.3" font-family="Helvetica,sans-Serif" font-size="14.00">MATH124</text>
</a>
</g>
</g>
<!-- MATH125&#45;&gt;MATH124 -->
<g id="edge10" class="edge"><title>MATH125&#45;&gt;MATH124</title>
<path fill="none" stroke="black" d="M297.5,-71.8314C297.5,-71.8314 297.5,-44.4133 297.5,-44.4133"/>
<polygon fill="black" stroke="black" points="294.3,-36.4133 300.7,-36.4132 300.7,-42.8132 294.3,-42.8133 294.3,-36.4133"/>
<polyline fill="none" stroke="black" points="297.5,-42.8133 297.5,-44.4133 "/>
</g>
<!-- MATH135 -->
<g id="node11" class="node"><title>MATH135</title>
<g id="a_node11"><a xlink:href="http://127.0.0.1:5000/MATH135" xlink:title="MATH135" target="_blank">
<polygon fill="#e5e5e5" stroke="#4d4d4d" points="437,-108 356,-108 356,-72 437,-72 437,-108"/>
<text text-anchor="middle" x="396.5" y="-86.3" font-family="Helvetica,sans-Serif" font-size="14.00">MATH135</text>
</a>
</g>
</g>
<!-- MATH136&#45;&gt;MATH135 -->
<g id="edge12" class="edge"><title>MATH136&#45;&gt;MATH135</title>
<path fill="none" stroke="black" d="M396.5,-143.831C396.5,-143.831 396.5,-116.413 396.5,-116.413"/>
<polygon fill="black" stroke="black" points="393.3,-108.413 399.7,-108.413 399.7,-114.813 393.3,-114.813 393.3,-108.413"/>
<polyline fill="none" stroke="black" points="396.5,-114.813 396.5,-116.413 "/>
</g>
<!-- MATH134 -->
<g id="node12" class="node"><title>MATH134</title>
<g id="a_node12"><a xlink:href="http://127.0.0.1:5000/MATH134" xlink:title="MATH134" target="_blank">
<polygon fill="#dedede" stroke="#4d4d4d" points="437,-36 356,-36 356,-0 437,-0 437,-36"/>
<text text-anchor="middle" x="396.5" y="-14.3" font-family="Helvetica,sans-Serif" font-size="14.00">MATH134</text>
</a>
</g>
</g>
<!-- MATH135&#45;&gt;MATH134 -->
<g id="edge13" class="edge"><title>MATH135&#45;&gt;MATH134</title>
<path fill="none" stroke="black" d="M396.5,-71.8314C396.5,-71.8314 396.5,-44.4133 396.5,-44.4133"/>
<polygon fill="black" stroke="black" points="393.3,-36.4133 399.7,-36.4132 399.7,-42.8132 393.3,-42.8133 393.3,-36.4133"/>
<polyline fill="none" stroke="black" points="396.5,-42.8133 396.5,-44.4133 "/>
</g>
<!-- CSE373 -->
<g id="node14" class="node"><title>CSE373</title>
<g id="a_node14"><a xlink:href="http://127.0.0.1:5000/CSE373" xlink:title="CSE373" target="_blank">
<polygon fill="#f5f5f5" stroke="#4d4d4d" points="150,-252 79,-252 79,-216 150,-216 150,-252"/>
<text text-anchor="middle" x="114.5" y="-230.3" font-family="Helvetica,sans-Serif" font-size="14.00">CSE373</text>
</a>
</g>
</g>
<!-- EE472&#45;&gt;CSE373 -->
<g id="edge15" class="edge"><title>EE472&#45;&gt;CSE373</title>
<path fill="none" stroke="black" d="M126,-287.831C126,-287.831 126,-260.413 126,-260.413"/>
<polygon fill="black" stroke="black" points="122.8,-252.413 129.2,-252.413 129.2,-258.813 122.8,-258.813 122.8,-252.413"/>
<polyline fill="none" stroke="black" points="126,-258.813 126,-260.413 "/>
</g>
<!-- CSE374 -->
<g id="node15" class="node"><title>CSE374</title>
<g id="a_node15"><a xlink:href="http://127.0.0.1:5000/CSE374" xlink:title="CSE374" target="_blank">
<polygon fill="#f5f5f5" stroke="#4d4d4d" points="239,-252 168,-252 168,-216 239,-216 239,-252"/>
<text text-anchor="middle" x="203.5" y="-230.3" font-family="Helvetica,sans-Serif" font-size="14.00">CSE374</text>
</a>
</g>
</g>
<!-- EE472&#45;&gt;CSE374 -->
<g id="edge17" class="edge"><title>EE472&#45;&gt;CSE374</title>
<path fill="none" stroke="black" d="M156.5,-287.831C156.5,-266.502 156.5,-234 156.5,-234 156.5,-234 161.477,-234 161.477,-234"/>
<ellipse fill="black" stroke="black" cx="164.677" cy="-234" rx="3.2" ry="3.2"/>
</g>
<!-- CSE373&#45;&gt;CSE143 -->
<g id="edge16" class="edge"><title>CSE373&#45;&gt;CSE143</title>
<path fill="none" stroke="black" d="M129.5,-215.965C129.5,-196.424 129.5,-168 129.5,-168 129.5,-168 159.801,-168 159.801,-168"/>
<polygon fill="black" stroke="black" points="167.801,-164.8 167.801,-171.2 161.401,-171.2 161.401,-164.8 167.801,-164.8"/>
<polyline fill="none" stroke="black" points="161.401,-168 159.801,-168 "/>
</g>
<!-- CSE374&#45;&gt;CSE143 -->
<g id="edge18" class="edge"><title>CSE374&#45;&gt;CSE143</title>
<path fill="none" stroke="black" d="M191.667,-215.831C191.667,-215.831 191.667,-188.413 191.667,-188.413"/>
<polygon fill="black" stroke="black" points="188.467,-180.413 194.867,-180.413 194.867,-186.813 188.467,-186.813 188.467,-180.413"/>
<polyline fill="none" stroke="black" points="191.667,-186.813 191.667,-188.413 "/>
</g>
<!-- CSE474&#45;&gt;CSE143 -->
<g id="edge20" class="edge"><title>CSE474&#45;&gt;CSE143</title>
<path fill="none" stroke="black" d="M243.333,-287.959C243.333,-250.552 243.333,-168 243.333,-168 243.333,-168 242.907,-168 242.907,-168"/>
<polygon fill="black" stroke="black" points="239.07,-171.2 239.071,-164.8 245.471,-164.8 245.47,-171.2 239.07,-171.2"/>
<polyline fill="none" stroke="black" points="245.47,-168 247.07,-168 "/>
</g>
<!-- EE474&#45;&gt;CSE143 -->
<g id="edge22" class="edge"><title>EE474&#45;&gt;CSE143</title>
<path fill="none" stroke="black" d="M300.5,-287.679C300.5,-256.866 300.5,-198 300.5,-198 300.5,-198 215.333,-198 215.333,-198 215.333,-198 215.333,-188.422 215.333,-188.422"/>
<polygon fill="black" stroke="black" points="212.133,-180.422 218.533,-180.422 218.533,-186.822 212.133,-186.822 212.133,-180.422"/>
<polyline fill="none" stroke="black" points="215.333,-186.822 215.333,-188.422 "/>
</g>
</g>
</svg>
