<?xml version="1.0" encoding="UTF-8" standalone="no"?>
<!DOCTYPE svg PUBLIC "-//W3C//DTD SVG 1.1//EN"
 "http://www.w3.org/Graphics/SVG/1.1/DTD/svg11.dtd">
<!-- Generated by graphviz version 2.38.0 (20140413.2041)
 -->
<!-- Title: %3 Pages: 1 -->
<svg width="100pt" height="260pt"
 viewBox="0.00 0.00 100.29 260.00" xmlns="http://www.w3.org/2000/svg" xmlns:xlink="http://www.w3.org/1999/xlink">
<g id="graph0" class="graph" transform="scale(1 1) rotate(0) translate(4 256)">
<title>%3</title>
<polygon fill="white" stroke="none" points="-4,4 -4,-256 96.2918,-256 96.2918,4 -4,4"/>
<!-- CSE505 -->
<g id="node1" class="node"><title>CSE505</title>
<ellipse fill="none" stroke="black" cx="46.1459" cy="-234" rx="46.2923" ry="18"/>
<text text-anchor="middle" x="46.1459" y="-230.3" font-family="Helvetica,sans-Serif" font-size="14.00">CSE505</text>
</g>
<!-- CSE341 -->
<g id="node2" class="node"><title>CSE341</title>
<g id="a_node2"><a xlink:href="http://127.0.0.1:5000/CSE341" xlink:title="CSE341" target="_blank">
<polygon fill="#fcfcfc" stroke="#4d4d4d" points="81.6459,-180 10.6459,-180 10.6459,-144 81.6459,-144 81.6459,-180"/>
<text text-anchor="middle" x="46.1459" y="-158.3" font-family="Helvetica,sans-Serif" font-size="14.00">CSE341</text>
</a>
</g>
</g>
<!-- CSE505&#45;&gt;CSE341 -->
<g id="edge1" class="edge"><title>CSE505&#45;&gt;CSE341</title>
<path fill="none" stroke="black" d="M46.1459,-215.831C46.1459,-215.831 46.1459,-188.413 46.1459,-188.413"/>
<polygon fill="black" stroke="black" points="42.9459,-180.413 49.3459,-180.413 49.346,-186.813 42.946,-186.813 42.9459,-180.413"/>
<polyline fill="none" stroke="black" points="46.146,-186.813 46.146,-188.413 "/>
</g>
<!-- CSE143 -->
<g id="node3" class="node"><title>CSE143</title>
<g id="a_node3"><a xlink:href="http://127.0.0.1:5000/CSE143" xlink:title="CSE143" target="_blank">
<polygon fill="#f5f5f5" stroke="#4d4d4d" points="81.6459,-108 10.6459,-108 10.6459,-72 81.6459,-72 81.6459,-108"/>
<text text-anchor="middle" x="46.1459" y="-86.3" font-family="Helvetica,sans-Serif" font-size="14.00">CSE143</text>
</a>
</g>
</g>
<!-- CSE341&#45;&gt;CSE143 -->
<g id="edge2" class="edge"><title>CSE341&#45;&gt;CSE143</title>
<path fill="none" stroke="black" d="M46.1459,-143.831C46.1459,-143.831 46.1459,-116.413 46.1459,-116.413"/>
<polygon fill="black" stroke="black" points="42.9459,-108.413 49.3459,-108.413 49.346,-114.813 42.946,-114.813 42.9459,-108.413"/>
<polyline fill="none" stroke="black" points="46.146,-114.813 46.146,-116.413 "/>
</g>
<!-- CSE142 -->
<g id="node4" class="node"><title>CSE142</title>
<g id="a_node4"><a xlink:href="http://127.0.0.1:5000/CSE142" xlink:title="CSE142" target="_blank">
<polygon fill="#ededed" stroke="#4d4d4d" points="81.6459,-36 10.6459,-36 10.6459,-0 81.6459,-0 81.6459,-36"/>
<text text-anchor="middle" x="46.1459" y="-14.3" font-family="Helvetica,sans-Serif" font-size="14.00">CSE142</text>
</a>
</g>
</g>
<!-- CSE143&#45;&gt;CSE142 -->
<g id="edge3" class="edge"><title>CSE143&#45;&gt;CSE142</title>
<path fill="none" stroke="black" d="M46.1459,-71.8314C46.1459,-71.8314 46.1459,-44.4133 46.1459,-44.4133"/>
<polygon fill="black" stroke="black" points="42.9459,-36.4133 49.3459,-36.4132 49.346,-42.8132 42.946,-42.8133 42.9459,-36.4133"/>
<polyline fill="none" stroke="black" points="46.146,-42.8133 46.146,-44.4133 "/>
</g>
</g>
</svg>
