<?xml version="1.0" encoding="UTF-8" standalone="no"?>
<!DOCTYPE svg PUBLIC "-//W3C//DTD SVG 1.1//EN"
 "http://www.w3.org/Graphics/SVG/1.1/DTD/svg11.dtd">
<!-- Generated by graphviz version 2.38.0 (20140413.2041)
 -->
<!-- Title: %3 Pages: 1 -->
<svg width="362pt" height="404pt"
 viewBox="0.00 0.00 361.50 404.00" xmlns="http://www.w3.org/2000/svg" xmlns:xlink="http://www.w3.org/1999/xlink">
<g id="graph0" class="graph" transform="scale(1 1) rotate(0) translate(4 400)">
<title>%3</title>
<polygon fill="white" stroke="none" points="-4,4 -4,-400 357.5,-400 357.5,4 -4,4"/>
<!-- PHYS232 -->
<g id="node1" class="node"><title>PHYS232</title>
<ellipse fill="none" stroke="black" cx="205.5" cy="-378" rx="51.9908" ry="18"/>
<text text-anchor="middle" x="205.5" y="-374.3" font-family="Helvetica,sans-Serif" font-size="14.00">PHYS232</text>
</g>
<!-- PHYS227 -->
<g id="node2" class="node"><title>PHYS227</title>
<g id="a_node2"><a xlink:href="http://127.0.0.1:5000/PHYS227" xlink:title="PHYS227" target="_blank">
<polygon fill="#fcfcfc" stroke="#4d4d4d" points="245.5,-324 165.5,-324 165.5,-288 245.5,-288 245.5,-324"/>
<text text-anchor="middle" x="205.5" y="-302.3" font-family="Helvetica,sans-Serif" font-size="14.00">PHYS227</text>
</a>
</g>
</g>
<!-- PHYS232&#45;&gt;PHYS227 -->
<g id="edge1" class="edge"><title>PHYS232&#45;&gt;PHYS227</title>
<path fill="none" stroke="black" d="M205.5,-359.831C205.5,-359.831 205.5,-332.413 205.5,-332.413"/>
<polygon fill="black" stroke="black" points="202.3,-324.413 208.7,-324.413 208.7,-330.813 202.3,-330.813 202.3,-324.413"/>
<polyline fill="none" stroke="black" points="205.5,-330.813 205.5,-332.413 "/>
</g>
<!-- PHYS121 -->
<g id="node3" class="node"><title>PHYS121</title>
<g id="a_node3"><a xlink:href="http://127.0.0.1:5000/PHYS121" xlink:title="PHYS121" target="_blank">
<polygon fill="#f5f5f5" stroke="#4d4d4d" points="353.5,-108 273.5,-108 273.5,-72 353.5,-72 353.5,-108"/>
<text text-anchor="middle" x="313.5" y="-86.3" font-family="Helvetica,sans-Serif" font-size="14.00">PHYS121</text>
</a>
</g>
</g>
<!-- PHYS227&#45;&gt;PHYS121 -->
<g id="edge2" class="edge"><title>PHYS227&#45;&gt;PHYS121</title>
<path fill="none" stroke="black" d="M245.574,-306C277.368,-306 316.5,-306 316.5,-306 316.5,-306 316.5,-116.045 316.5,-116.045"/>
<polygon fill="black" stroke="black" points="313.3,-108.045 319.7,-108.044 319.7,-114.444 313.3,-114.445 313.3,-108.045"/>
<polyline fill="none" stroke="black" points="316.5,-114.445 316.5,-116.045 "/>
</g>
<!-- PHYS122 -->
<g id="node6" class="node"><title>PHYS122</title>
<g id="a_node6"><a xlink:href="http://127.0.0.1:5000/PHYS122" xlink:title="PHYS122" target="_blank">
<polygon fill="#f5f5f5" stroke="#4d4d4d" points="279.5,-180 199.5,-180 199.5,-144 279.5,-144 279.5,-180"/>
<text text-anchor="middle" x="239.5" y="-158.3" font-family="Helvetica,sans-Serif" font-size="14.00">PHYS122</text>
</a>
</g>
</g>
<!-- PHYS227&#45;&gt;PHYS122 -->
<g id="edge5" class="edge"><title>PHYS227&#45;&gt;PHYS122</title>
<path fill="none" stroke="black" d="M228.5,-287.762C228.5,-287.762 228.5,-186.49 228.5,-186.49"/>
<ellipse fill="black" stroke="black" cx="228.5" cy="-183.29" rx="3.2" ry="3.2"/>
</g>
<!-- PHYS123 -->
<g id="node9" class="node"><title>PHYS123</title>
<g id="a_node9"><a xlink:href="http://127.0.0.1:5000/PHYS123" xlink:title="PHYS123" target="_blank">
<polygon fill="#f5f5f5" stroke="#4d4d4d" points="211.5,-252 131.5,-252 131.5,-216 211.5,-216 211.5,-252"/>
<text text-anchor="middle" x="171.5" y="-230.3" font-family="Helvetica,sans-Serif" font-size="14.00">PHYS123</text>
</a>
</g>
</g>
<!-- PHYS227&#45;&gt;PHYS123 -->
<g id="edge13" class="edge"><title>PHYS227&#45;&gt;PHYS123</title>
<path fill="none" stroke="black" d="M188.5,-287.831C188.5,-287.831 188.5,-260.413 188.5,-260.413"/>
<polygon fill="black" stroke="black" points="191.3,-260.413 188.5,-252.413 185.7,-260.413 191.3,-260.413"/>
</g>
<!-- MATH126 -->
<g id="node11" class="node"><title>MATH126</title>
<g id="a_node11"><a xlink:href="http://127.0.0.1:5000/MATH126" xlink:title="MATH126" target="_blank">
<polygon fill="#ededed" stroke="#4d4d4d" points="83,-180 2,-180 2,-144 83,-144 83,-180"/>
<text text-anchor="middle" x="42.5" y="-158.3" font-family="Helvetica,sans-Serif" font-size="14.00">MATH126</text>
</a>
</g>
</g>
<!-- PHYS227&#45;&gt;MATH126 -->
<g id="edge22" class="edge"><title>PHYS227&#45;&gt;MATH126</title>
<path fill="none" stroke="black" d="M165.449,-306C113.375,-306 29,-306 29,-306 29,-306 29,-189.838 29,-189.838"/>
<polygon fill="black" stroke="black" points="29.0001,-189.838 25.8,-185.038 29,-180.238 32.2,-185.038 29.0001,-189.838"/>
</g>
<!-- MATH124 -->
<g id="node4" class="node"><title>MATH124</title>
<g id="a_node4"><a xlink:href="http://127.0.0.1:5000/MATH124" xlink:title="MATH124" target="_blank">
<polygon fill="#ededed" stroke="#4d4d4d" points="202,-36 121,-36 121,-0 202,-0 202,-36"/>
<text text-anchor="middle" x="161.5" y="-14.3" font-family="Helvetica,sans-Serif" font-size="14.00">MATH124</text>
</a>
</g>
</g>
<!-- PHYS121&#45;&gt;MATH124 -->
<g id="edge3" class="edge"><title>PHYS121&#45;&gt;MATH124</title>
<path fill="none" stroke="black" d="M282.667,-71.5782C282.667,-62.7209 282.667,-54 282.667,-54 282.667,-54 180.5,-54 180.5,-54 180.5,-54 180.5,-44.4218 180.5,-44.4218"/>
<polygon fill="black" stroke="black" points="177.3,-36.4219 183.7,-36.4218 183.7,-42.8218 177.3,-42.8219 177.3,-36.4219"/>
<polyline fill="none" stroke="black" points="180.5,-42.8218 180.5,-44.4218 "/>
</g>
<!-- MATH134 -->
<g id="node5" class="node"><title>MATH134</title>
<g id="a_node5"><a xlink:href="http://127.0.0.1:5000/MATH134" xlink:title="MATH134" target="_blank">
<polygon fill="#ededed" stroke="#4d4d4d" points="301,-36 220,-36 220,-0 301,-0 301,-36"/>
<text text-anchor="middle" x="260.5" y="-14.3" font-family="Helvetica,sans-Serif" font-size="14.00">MATH134</text>
</a>
</g>
</g>
<!-- PHYS121&#45;&gt;MATH134 -->
<g id="edge4" class="edge"><title>PHYS121&#45;&gt;MATH134</title>
<path fill="none" stroke="black" d="M291.833,-71.8314C291.833,-71.8314 291.833,-44.4133 291.833,-44.4133"/>
<polygon fill="black" stroke="black" points="288.633,-36.4133 295.033,-36.4132 295.033,-42.8132 288.633,-42.8133 288.633,-36.4133"/>
<polyline fill="none" stroke="black" points="291.833,-42.8133 291.833,-44.4133 "/>
</g>
<!-- PHYS122&#45;&gt;PHYS121 -->
<g id="edge6" class="edge"><title>PHYS122&#45;&gt;PHYS121</title>
<path fill="none" stroke="black" d="M262.8,-143.831C262.8,-122.502 262.8,-90 262.8,-90 262.8,-90 265.06,-90 265.06,-90"/>
<polygon fill="black" stroke="black" points="273.06,-86.8 273.06,-93.2 266.66,-93.2001 266.66,-86.8001 273.06,-86.8"/>
<polyline fill="none" stroke="black" points="266.66,-90.0001 265.06,-90.0001 "/>
</g>
<!-- PHYS122&#45;&gt;MATH134 -->
<g id="edge12" class="edge"><title>PHYS122&#45;&gt;MATH134</title>
<path fill="none" stroke="black" d="M252.1,-143.762C252.1,-143.762 252.1,-42.4896 252.1,-42.4896"/>
<ellipse fill="black" stroke="black" cx="252.1" cy="-39.2896" rx="3.2" ry="3.2"/>
</g>
<!-- PHYS141 -->
<g id="node7" class="node"><title>PHYS141</title>
<g id="a_node7"><a xlink:href="http://127.0.0.1:5000/PHYS141" xlink:title="PHYS141" target="_blank">
<polygon fill="#ededed" stroke="#4d4d4d" points="217.5,-108 137.5,-108 137.5,-72 217.5,-72 217.5,-108"/>
<text text-anchor="middle" x="177.5" y="-86.3" font-family="Helvetica,sans-Serif" font-size="14.00">PHYS141</text>
</a>
</g>
</g>
<!-- PHYS122&#45;&gt;PHYS141 -->
<g id="edge7" class="edge"><title>PHYS122&#45;&gt;PHYS141</title>
<path fill="none" stroke="black" d="M211.5,-143.831C211.5,-143.831 211.5,-116.413 211.5,-116.413"/>
<polygon fill="black" stroke="black" points="208.3,-108.413 214.7,-108.413 214.7,-114.813 208.3,-114.813 208.3,-108.413"/>
<polyline fill="none" stroke="black" points="211.5,-114.813 211.5,-116.413 "/>
</g>
<!-- MATH125 -->
<g id="node8" class="node"><title>MATH125</title>
<g id="a_node8"><a xlink:href="http://127.0.0.1:5000/MATH125" xlink:title="MATH125" target="_blank">
<polygon fill="#ededed" stroke="#4d4d4d" points="81,-108 0,-108 0,-72 81,-72 81,-108"/>
<text text-anchor="middle" x="40.5" y="-86.3" font-family="Helvetica,sans-Serif" font-size="14.00">MATH125</text>
</a>
</g>
</g>
<!-- PHYS122&#45;&gt;MATH125 -->
<g id="edge10" class="edge"><title>PHYS122&#45;&gt;MATH125</title>
<path fill="none" stroke="black" d="M205.5,-143.578C205.5,-134.721 205.5,-126 205.5,-126 205.5,-126 54.6667,-126 54.6667,-126 54.6667,-126 54.6667,-114.822 54.6667,-114.822"/>
<ellipse fill="black" stroke="black" cx="54.6667" cy="-111.622" rx="3.2" ry="3.2"/>
</g>
<!-- PHYS141&#45;&gt;MATH124 -->
<g id="edge8" class="edge"><title>PHYS141&#45;&gt;MATH124</title>
<path fill="none" stroke="black" d="M159,-71.8314C159,-71.8314 159,-44.4133 159,-44.4133"/>
<polygon fill="black" stroke="black" points="155.8,-36.4133 162.2,-36.4132 162.2,-42.8132 155.8,-42.8133 155.8,-36.4133"/>
<polyline fill="none" stroke="black" points="159,-42.8133 159,-44.4133 "/>
</g>
<!-- PHYS141&#45;&gt;MATH134 -->
<g id="edge9" class="edge"><title>PHYS141&#45;&gt;MATH134</title>
<path fill="none" stroke="black" d="M209.75,-71.8314C209.75,-50.502 209.75,-18 209.75,-18 209.75,-18 211.535,-18 211.535,-18"/>
<polygon fill="black" stroke="black" points="219.535,-14.8 219.535,-21.2 213.135,-21.2001 213.135,-14.8001 219.535,-14.8"/>
<polyline fill="none" stroke="black" points="213.135,-18.0001 211.535,-18.0001 "/>
</g>
<!-- MATH125&#45;&gt;MATH124 -->
<g id="edge11" class="edge"><title>MATH125&#45;&gt;MATH124</title>
<path fill="none" stroke="black" d="M81.2385,-84C104.569,-84 129.25,-84 129.25,-84 129.25,-84 129.25,-44.0348 129.25,-44.0348"/>
<polygon fill="black" stroke="black" points="126.05,-36.0348 132.45,-36.0348 132.45,-42.4348 126.05,-42.4348 126.05,-36.0348"/>
<polyline fill="none" stroke="black" points="129.25,-42.4348 129.25,-44.0348 "/>
</g>
<!-- PHYS123&#45;&gt;MATH134 -->
<g id="edge21" class="edge"><title>PHYS123&#45;&gt;MATH134</title>
<path fill="none" stroke="black" d="M190.5,-215.842C190.5,-187.261 190.5,-135 190.5,-135 190.5,-135 241.4,-135 241.4,-135 241.4,-135 241.4,-42.4248 241.4,-42.4248"/>
<ellipse fill="black" stroke="black" cx="241.4" cy="-39.2248" rx="3.2" ry="3.2"/>
</g>
<!-- PHYS123&#45;&gt;PHYS122 -->
<g id="edge14" class="edge"><title>PHYS123&#45;&gt;PHYS122</title>
<path fill="none" stroke="black" d="M205.5,-215.831C205.5,-215.831 205.5,-188.413 205.5,-188.413"/>
<polygon fill="black" stroke="black" points="202.3,-180.413 208.7,-180.413 208.7,-186.813 202.3,-186.813 202.3,-180.413"/>
<polyline fill="none" stroke="black" points="205.5,-186.813 205.5,-188.413 "/>
</g>
<!-- PHYS142 -->
<g id="node10" class="node"><title>PHYS142</title>
<g id="a_node10"><a xlink:href="http://127.0.0.1:5000/PHYS142" xlink:title="PHYS142" target="_blank">
<polygon fill="#ededed" stroke="#4d4d4d" points="181.5,-180 101.5,-180 101.5,-144 181.5,-144 181.5,-180"/>
<text text-anchor="middle" x="141.5" y="-158.3" font-family="Helvetica,sans-Serif" font-size="14.00">PHYS142</text>
</a>
</g>
</g>
<!-- PHYS123&#45;&gt;PHYS142 -->
<g id="edge15" class="edge"><title>PHYS123&#45;&gt;PHYS142</title>
<path fill="none" stroke="black" d="M156.5,-215.831C156.5,-215.831 156.5,-188.413 156.5,-188.413"/>
<polygon fill="black" stroke="black" points="153.3,-180.413 159.7,-180.413 159.7,-186.813 153.3,-186.813 153.3,-180.413"/>
<polyline fill="none" stroke="black" points="156.5,-186.813 156.5,-188.413 "/>
</g>
<!-- PHYS123&#45;&gt;MATH126 -->
<g id="edge19" class="edge"><title>PHYS123&#45;&gt;MATH126</title>
<path fill="none" stroke="black" d="M131.428,-234C98.0687,-234 56,-234 56,-234 56,-234 56,-186.569 56,-186.569"/>
<ellipse fill="black" stroke="black" cx="56" cy="-183.369" rx="3.2" ry="3.2"/>
</g>
<!-- PHYS142&#45;&gt;MATH134 -->
<g id="edge18" class="edge"><title>PHYS142&#45;&gt;MATH134</title>
<path fill="none" stroke="black" d="M166.833,-143.956C166.833,-131.437 166.833,-117 166.833,-117 166.833,-117 230.7,-117 230.7,-117 230.7,-117 230.7,-42.5581 230.7,-42.5581"/>
<ellipse fill="black" stroke="black" cx="230.7" cy="-39.3581" rx="3.2" ry="3.2"/>
</g>
<!-- PHYS142&#45;&gt;PHYS141 -->
<g id="edge16" class="edge"><title>PHYS142&#45;&gt;PHYS141</title>
<path fill="none" stroke="black" d="M152.167,-143.831C152.167,-143.831 152.167,-116.413 152.167,-116.413"/>
<polygon fill="black" stroke="black" points="148.967,-108.413 155.367,-108.413 155.367,-114.813 148.967,-114.813 148.967,-108.413"/>
<polyline fill="none" stroke="black" points="152.167,-114.813 152.167,-116.413 "/>
</g>
<!-- PHYS142&#45;&gt;MATH125 -->
<g id="edge17" class="edge"><title>PHYS142&#45;&gt;MATH125</title>
<path fill="none" stroke="black" d="M111.25,-143.965C111.25,-124.424 111.25,-96 111.25,-96 111.25,-96 87.6456,-96 87.6456,-96"/>
<ellipse fill="black" stroke="black" cx="84.4456" cy="-96" rx="3.2" ry="3.2"/>
</g>
<!-- MATH126&#45;&gt;MATH125 -->
<g id="edge20" class="edge"><title>MATH126&#45;&gt;MATH125</title>
<path fill="none" stroke="black" d="M28.3333,-143.831C28.3333,-143.831 28.3333,-116.413 28.3333,-116.413"/>
<polygon fill="black" stroke="black" points="25.1333,-108.413 31.5333,-108.413 31.5334,-114.813 25.1334,-114.813 25.1333,-108.413"/>
<polyline fill="none" stroke="black" points="28.3334,-114.813 28.3334,-116.413 "/>
</g>
</g>
</svg>
